<?xml version="1.0" encoding="UTF-8"?>
<svg width="304px" height="48px" viewBox="0 0 304 48" version="1.1" xmlns="http://www.w3.org/2000/svg" xmlns:xlink="http://www.w3.org/1999/xlink">
    <title>header</title>
    <defs>
        <radialGradient cx="0.570448579%" cy="99.6998818%" fx="0.570448579%" fy="99.6998818%" r="187.518919%" gradientTransform="translate(0.005704,0.996999),scale(1.000000,0.726079),translate(-0.005704,-0.996999)" id="radialGradient-1">
            <stop stop-color="#FFF0C1" offset="0%"></stop>
            <stop stop-color="#D9E6BA" offset="9.813666%"></stop>
            <stop stop-color="#9DD5AF" offset="26.78%"></stop>
            <stop stop-color="#71C8A7" offset="41.24%"></stop>
            <stop stop-color="#56C1A2" offset="52.43%"></stop>
            <stop stop-color="#4CBEA0" offset="59%"></stop>
        </radialGradient>
    </defs>
    <g id="Homepage" stroke="none" stroke-width="1" fill="none" fill-rule="evenodd">
        <g id="Desktop---Homepage-B---menu-open" transform="translate(-61.000000, -43.000000)" fill-rule="nonzero">
            <g id="int_lum_sm_h_pos_clr_rgb_200226" transform="translate(61.000000, 43.000000)">
                <path d="M297.533333,42.2666667 C297.533333,42.2666667 297.933333,42.6 298.4,42.6 C298.666667,42.6 298.866667,42.4666667 298.866667,42.2 C298.866667,41.6 297.266667,41.6666667 297.266667,40.6666667 C297.266667,40.0666667 297.733333,39.6666667 298.4,39.6666667 C299.066667,39.6666667 299.4,40.0666667 299.4,40.0666667 L299.133333,40.6 C299.133333,40.6 298.8,40.3333333 298.4,40.3333333 C298.133333,40.3333333 297.866667,40.5333333 297.866667,40.7333333 C297.866667,41.3333333 299.466667,41.2 299.466667,42.2666667 C299.466667,42.8 299.066667,43.2666667 298.333333,43.2666667 C297.6,43.2666667 297.133333,42.8 297.133333,42.8 L297.533333,42.2666667 Z M300.333333,39.6666667 L301,39.6666667 L301.666667,41.3333333 C301.733333,41.5333333 301.866667,41.8666667 301.866667,41.8666667 L301.866667,41.8666667 C301.866667,41.8666667 301.933333,41.6 302.066667,41.3333333 L302.733333,39.6666667 L303.4,39.6666667 L303.666667,43.0666667 L303.066667,43.0666667 L302.933333,41.1333333 C302.933333,40.9333333 302.933333,40.6 302.933333,40.6 L302.933333,40.6 C302.933333,40.6 302.8,40.9333333 302.733333,41.1333333 L302.2,42.4666667 L301.666667,42.4666667 L301.133333,41.1333333 C301.066667,40.9333333 300.933333,40.6 300.933333,40.6 L300.933333,40.6 C300.933333,40.6 300.933333,40.9333333 300.933333,41.1333333 L300.8,43.0666667 L300,43.0666667 L300.333333,39.6666667 Z" id="Shape" fill="#009D88"></path>
                <polygon id="Path" fill="#4CBEA0" points="0 14.5333333 20 0 7.66666667 38.0666667"></polygon>
                <polygon id="Path" fill="url(#radialGradient-1)" points="20 0 39.3333333 15.6666667 35.2666667 26.3333333 13.5333333 35.5333333"></polygon>
                <path d="M70.4,23.4 L74.2,23.4 L74.2,35.2 C74.2,37.9333333 74.7333333,40.1333333 77.9333333,40.1333333 C81.9333333,40.1333333 84.3333333,36.6 84.3333333,32.6666667 L84.3333333,23.4 L88.1333333,23.4 L88.1333333,43.1333333 L84.4666667,43.1333333 L84.4666667,40.5333333 C84.4666667,39.7333333 84.5333333,39.0666667 84.5333333,39.0666667 L84.4666667,39.0666667 C83.6666667,41 81.0666667,43.6 77.2,43.6 C72.7333333,43.6 70.4666667,41.2666667 70.4666667,36 L70.4666667,23.4 L70.4,23.4 Z M92.8666667,23.4 L96.5333333,23.4 L96.5333333,26 C96.5333333,26.8 96.4666667,27.4666667 96.4666667,27.4666667 L96.5333333,27.4666667 C97.4666667,25.1333333 100.266667,22.9333333 103.333333,22.9333333 C106.666667,22.9333333 108.6,24.4666667 109.266667,27.4 L109.333333,27.4 C110.4,25 113.133333,22.9333333 116.333333,22.9333333 C120.8,22.9333333 122.866667,25.4666667 122.866667,30.5333333 L122.866667,43.2 L119.066667,43.2 L119.066667,31.2666667 C119.066667,28.4666667 118.533333,26.3333333 115.533333,26.3333333 C112.733333,26.3333333 110.666667,28.6666667 110,31.3333333 C109.8,32.1333333 109.733333,33.0666667 109.733333,34.0666667 L109.733333,43.0666667 L106,43.0666667 L106,31.2666667 C106,28.6666667 105.6,26.3333333 102.533333,26.3333333 C99.6666667,26.3333333 97.6,28.7333333 96.8666667,31.5333333 C96.6666667,32.3333333 96.6,33.2 96.6,34.1333333 L96.6,43.1333333 L92.8,43.1333333 L92.8,23.4 L92.8666667,23.4 Z M127.666667,15.6666667 L131.466667,15.6666667 L131.466667,19.5333333 L127.666667,19.5333333 L127.666667,15.6666667 Z M127.666667,23.4 L131.466667,23.4 L131.466667,43.1333333 L127.666667,43.1333333 L127.666667,23.4 Z M136.266667,23.4 L139.933333,23.4 L139.933333,26 C139.933333,26.8 139.866667,27.4666667 139.866667,27.4666667 L139.933333,27.4666667 C140.733333,25.7333333 143.066667,22.9333333 147.333333,22.9333333 C152,22.9333333 154.133333,25.4666667 154.133333,30.5333333 L154.133333,43.2 L150.333333,43.2 L150.333333,31.3333333 C150.333333,28.5333333 149.733333,26.4 146.6,26.4 C143.6,26.4 141.2,28.4 140.333333,31.2666667 C140.066667,32.0666667 140,32.9333333 140,33.9333333 L140,43.2 L136.2,43.2 L136.2,23.4 L136.266667,23.4 Z M158.933333,15.6666667 L162.733333,15.6666667 L162.733333,19.5333333 L158.933333,19.5333333 L158.933333,15.6666667 Z M158.933333,23.4 L162.733333,23.4 L162.733333,43.1333333 L158.933333,43.1333333 L158.933333,23.4 Z M168.333333,38 C168.333333,38 170.533333,40.3333333 174,40.3333333 C175.666667,40.3333333 177.266667,39.4666667 177.266667,37.8666667 C177.266667,34.2666667 167.133333,35 167.133333,28.5333333 C167.133333,24.9333333 170.333333,22.9333333 174.266667,22.9333333 C178.6,22.9333333 180.6,25.1333333 180.6,25.1333333 L179.066667,28 C179.066667,28 177.333333,26.2666667 174.2,26.2666667 C172.533333,26.2666667 170.933333,27 170.933333,28.6666667 C170.933333,32.2 181.066667,31.4666667 181.066667,37.9333333 C181.066667,41.2 178.266667,43.6666667 173.933333,43.6666667 C169.066667,43.6666667 166.466667,40.8 166.466667,40.8 L168.333333,38 Z M191.133333,15.6666667 L193.8,15.6666667 L193.8,28.8 L206.933333,28.8 L206.933333,15.6666667 L209.6,15.6666667 L209.6,43.0666667 L206.933333,43.0666667 L206.933333,31.2666667 L193.8,31.2666667 L193.8,43.1333333 L191.133333,43.1333333 L191.133333,15.6666667 Z M223.666667,23 C229.066667,23 231.866667,27.2 231.866667,32.0666667 C231.866667,32.5333333 231.8,33.4 231.8,33.4 L216.733333,33.4 C216.866667,38.4 220.266667,41.1333333 224.333333,41.1333333 C227.933333,41.1333333 230.333333,38.7333333 230.333333,38.7333333 L231.533333,40.7333333 C231.533333,40.7333333 228.666667,43.4666667 224.266667,43.4666667 C218.4,43.4666667 214,39.2666667 214,33.2 C214,26.8666667 218.333333,23 223.666667,23 Z M229.133333,31.2666667 C229,27.2 226.466667,25.2666667 223.533333,25.2666667 C220.266667,25.2666667 217.4,27.3333333 216.8,31.2666667 L229.133333,31.2666667 Z M246.733333,31 L247.8,31 L247.8,30.4666667 C247.8,26.6666667 245.733333,25.4 242.933333,25.4 C239.666667,25.4 237.4,27.2666667 237.4,27.2666667 L236.133333,25.2666667 C236.133333,25.2666667 238.733333,23.0666667 243.133333,23.0666667 C247.866667,23.0666667 250.466667,25.6666667 250.466667,30.6 L250.466667,43.1333333 L247.933333,43.1333333 L247.933333,41 C247.933333,40 248,39.3333333 248,39.3333333 L247.933333,39.3333333 C247.933333,39.3333333 246.266667,43.6 241.4,43.6 C238.133333,43.6 234.733333,41.6666667 234.733333,37.8 C234.733333,31.1333333 243.333333,31 246.733333,31 Z M241.866667,41.3333333 C245.6,41.3333333 247.866667,37.4 247.866667,34.0666667 L247.866667,33.2 L246.733333,33.2 C243.666667,33.2 237.466667,33.3333333 237.466667,37.6666667 C237.466667,39.4666667 238.933333,41.3333333 241.866667,41.3333333 Z M255.333333,15.6666667 L258,15.6666667 L258,37.8666667 C258,40.4666667 259.2,40.8 260.2,40.8 C260.533333,40.8 260.866667,40.7333333 260.866667,40.7333333 L260.866667,43.1333333 C260.866667,43.1333333 260.4,43.2 259.866667,43.2 C258.2,43.2 255.333333,42.6666667 255.333333,38.4 L255.333333,15.6666667 Z M264.933333,25.9333333 L262.333333,25.9333333 L262.333333,23.7333333 L264.933333,23.7333333 L264.933333,18.0666667 L267.533333,18.0666667 L267.533333,23.7333333 L272.466667,23.7333333 L272.466667,25.9333333 L267.533333,25.9333333 L267.533333,35.6666667 C267.533333,40.2666667 270.466667,40.8666667 271.933333,40.8666667 C272.466667,40.8666667 272.8,40.8 272.8,40.8 L272.8,43.2 C272.8,43.2 272.4,43.2666667 271.666667,43.2666667 C269.4,43.2666667 264.866667,42.5333333 264.866667,36 L264.866667,25.9333333 L264.933333,25.9333333 Z M276.733333,15.6666667 L279.4,15.6666667 L279.4,26.2666667 C279.4,27.1333333 279.333333,27.8666667 279.333333,27.8666667 L279.4,27.8666667 C280.133333,26 282.733333,23 287.2,23 C292.066667,23 293.733333,25.8 293.733333,30.6 L293.733333,43.0666667 L291.066667,43.0666667 L291.066667,31.3333333 C291.066667,28.2666667 290.6,25.5333333 286.8,25.5333333 C283.466667,25.5333333 280.533333,27.8666667 279.666667,31.1333333 C279.4,31.9333333 279.333333,32.8 279.333333,33.7333333 L279.333333,43.1333333 L276.666667,43.1333333 L276.666667,15.6666667 L276.733333,15.6666667 Z M53.0666667,15.6666667 L56.9333333,15.6666667 L56.9333333,37.4666667 C56.9333333,38.7333333 57.9333333,39.7333333 59.2,39.7333333 L67.1333333,39.7333333 L67.1333333,43.0666667 L57.9333333,43.0666667 C55.2666667,43.0666667 53.0666667,40.8666667 53.0666667,38.2 L53.0666667,15.6666667 L53.0666667,15.6666667 Z M20,48 L29.6666667,41 L35.3333333,26.3333333 L12.4,41.8666667 L20,48 Z" id="Shape" fill="#009D88"></path>
            </g>
        </g>
    </g>
</svg>